<?xml version="1.0" encoding="UTF-8" standalone="no"?>
<!-- Uploaded to: SVG Repo, www.svgrepo.com, Generator: SVG Repo Mixer Tools -->

<svg
   fill="#000000"
   width="800px"
   height="800px"
   viewBox="0 0 32 32"
   version="1.1"
   id="svg1"
   sodipodi:docname="tg.svg"
   inkscape:version="1.3.1 (91b66b0783, 2023-11-16)"
   xmlns:inkscape="http://www.inkscape.org/namespaces/inkscape"
   xmlns:sodipodi="http://sodipodi.sourceforge.net/DTD/sodipodi-0.dtd"
   xmlns="http://www.w3.org/2000/svg"
   xmlns:svg="http://www.w3.org/2000/svg">
  <defs
     id="defs1" />
  <sodipodi:namedview
     id="namedview1"
     pagecolor="#ffffff"
     bordercolor="#000000"
     borderopacity="0.25"
     inkscape:showpageshadow="2"
     inkscape:pageopacity="0.0"
     inkscape:pagecheckerboard="0"
     inkscape:deskcolor="#d1d1d1"
     inkscape:zoom="1.01625"
     inkscape:cx="345.87946"
     inkscape:cy="384.25584"
     inkscape:window-width="1920"
     inkscape:window-height="1009"
     inkscape:window-x="-8"
     inkscape:window-y="-8"
     inkscape:window-maximized="1"
     inkscape:current-layer="svg1" />
  <circle
     style="fill:none;fill-opacity:1;stroke:#f50005;stroke-width:0.22919;stroke-linecap:round;stroke-opacity:1"
     id="path2"
     cx="16.629766"
     cy="15.527676"
     r="10.115621" />
  <path
     style="fill:none;fill-opacity:1;stroke:#f50005;stroke-width:0.22919;stroke-linecap:round;stroke-opacity:1"
     d="m 8.619926,15.98032 c 0.9102516,-0.471239 1.891082,-0.782713 2.833948,-1.180812 0.54843,-0.231559 1.210014,-0.540446 1.771218,-0.747848 0.311336,-0.115058 0.633314,-0.199824 0.94465,-0.314883 0.292524,-0.108107 0.572842,-0.247667 0.865928,-0.354243 0.983214,-0.357532 0.852343,-0.234482 1.92866,-0.551046 0.247935,-0.07292 0.470946,-0.21308 0.708487,-0.314883 0.129883,-0.05566 0.26892,-0.09094 0.393604,-0.157441 0.07413,-0.03953 0.126901,-0.110842 0.196802,-0.157442 0.205698,-0.137132 0.464824,-0.178682 0.669126,-0.314883 0.254257,-0.169504 0.113534,-0.137047 0.354244,-0.236163 1.569001,-0.646059 0.03636,-0.02524 0.669127,-0.236162 0.385825,-0.128608 0.754889,-0.259364 1.10209,-0.432964 0.03521,-0.0176 0.08074,0.01245 0.118082,0 0.136388,0.03206 0.15026,-0.117794 0.236162,-0.157442 0.139433,-0.06435 0.29121,-0.09838 0.432964,-0.157441 0.01713,-0.0071 0.02624,-0.05248 0.03936,-0.03936 0.01855,0.01855 0.009,0.05406 0,0.07872 -0.04416,0.121439 -0.10654,0.235473 -0.157442,0.354244 -0.196885,0.459399 -0.339507,0.921992 -0.551045,1.377613 -0.09146,0.196982 -0.16905,0.40112 -0.275523,0.590406 -0.243942,0.433675 -0.793472,1.247583 -1.062731,1.810578 -0.220236,0.460494 -0.387071,0.949304 -0.590406,1.416974 -0.05849,0.134523 -0.138313,0.259082 -0.196802,0.393604 -0.134089,0.308407 -0.209658,0.641022 -0.354243,0.94465 -0.06578,0.138143 -0.164901,0.258206 -0.236162,0.393604 -0.296788,0.563897 -0.04762,0.139543 -0.236163,0.629766 -0.03159,0.08215 -0.08539,0.154445 -0.118081,0.236162 -0.07244,0.181095 -0.122951,0.370523 -0.196802,0.551046 -0.154652,0.378039 -0.128709,0.234549 -0.314883,0.551046 -0.08335,0.141697 -0.151582,0.291996 -0.236162,0.432964 -0.212985,0.354974 -0.226762,0.296082 -0.393604,0.629766 -0.202519,0.405038 -0.02323,0.154586 -0.275523,0.551046 -0.109328,0.1718 -0.265236,0.278922 -0.393604,0.432964 -0.04685,0.05622 -0.08932,0.139278 -0.118081,0.196802 -0.05553,0.111061 -0.199774,0.213884 -0.275523,0.314883 -0.05462,0.07283 -0.205495,0.253549 -0.236162,0.314883 -0.0059,0.01173 0.01312,0.03936 0,0.03936 -0.181327,0 -0.215005,-0.355955 -0.236163,-0.472325 -0.0094,-0.05163 0.0058,-0.105282 0,-0.157442 -0.04051,-0.36456 -0.20408,-0.705516 -0.275522,-1.06273 -0.02075,-0.103724 -0.0172,-0.211454 -0.03936,-0.314883 -0.03509,-0.163751 -0.136621,-0.361234 -0.196802,-0.511685 -0.08659,-0.216488 -0.172103,-0.422928 -0.275523,-0.629767 -0.06401,-0.128018 -0.0099,-0.09362 -0.07872,-0.196802 -0.07582,-0.113725 -0.193514,-0.205538 -0.275523,-0.314883 -0.02329,-0.03106 -0.05377,-0.132495 -0.07872,-0.157442 -0.0093,-0.0093 -0.03008,0.0093 -0.03936,0 -0.0093,-0.0093 0.0093,-0.03008 0,-0.03936 -0.0093,-0.0093 -0.02624,0 -0.03936,0 -0.01312,-0.01312 -0.02728,-0.02527 -0.03936,-0.03936 -0.06669,-0.0778 -0.122045,-0.166078 -0.196802,-0.236163 -1.344457,-1.260429 -0.632169,-0.577207 -1.574416,-1.338253 -1.329724,-1.125151 0.244682,0.173672 -0.98401,-0.747848 -0.253392,-0.190044 -0.463231,-0.433562 -0.708487,-0.629766 -0.105463,-0.08437 -0.278892,-0.100086 -0.393604,-0.157441 -0.08169,-0.04084 -0.3080676,0 -0.3936036,0 -0.1034496,0 -0.8548548,-0.0449 -0.9446496,0 -0.097275,0.04864 0.013586,0.03936 -0.078721,0.03936"
     id="path7" />
  <path
     style="fill:none;fill-opacity:1;stroke:#f50005;stroke-width:0.22919;stroke-linecap:round;stroke-opacity:1"
     d="m 13.225092,18.02706 c 0.46633,-0.310886 0.34778,-0.183399 0.747848,-0.708487 0.203876,-0.198614 0.269293,-0.485299 0.432964,-0.708487 0.06583,-0.08977 0.164892,-0.150638 0.236162,-0.236162 0.06057,-0.07268 0.08624,-0.173861 0.157442,-0.236163 0.315916,-0.276426 0.74126,-0.491988 1.102091,-0.708487 0.184653,-0.110792 0.36467,-0.250701 0.551045,-0.354243 0.06176,-0.03431 0.13504,-0.04441 0.196802,-0.07872 0.593312,-0.329618 -0.335744,0.108832 0.354244,-0.236162 0.183682,-0.09184 0.362901,-0.19321 0.551046,-0.275523 0.114032,-0.04989 0.241622,-0.06508 0.354243,-0.118081 0.111994,-0.0527 0.208747,-0.13312 0.314883,-0.196802 0.201046,-0.120628 0.389361,-0.194256 0.590406,-0.314884 0.03182,-0.01909 0.04741,-0.0588 0.07872,-0.07872 0.113962,-0.07252 0.243182,-0.119913 0.354243,-0.196802 0.06102,-0.04225 0.09949,-0.111078 0.157442,-0.157442 0.07388,-0.0591 0.162938,-0.09753 0.236162,-0.157441 0.264653,-0.216534 0.137728,-0.145587 0.314884,-0.393604 0.08983,-0.125756 0.225586,-0.229229 0.314883,-0.354244 0.0341,-0.04775 0.04617,-0.108621 0.07872,-0.157441 0.05146,-0.07719 0.138846,-0.124358 0.196802,-0.196802 0.07389,-0.09237 0.130969,-0.216134 0.196802,-0.314884 0.02932,-0.04398 0.135204,-0.174565 0.157441,-0.196802 0.0093,-0.0093 0.03349,0.01174 0.03936,0 0.01174,-0.02347 -0.01173,-0.05525 0,-0.07872 0.0059,-0.01173 0.02844,0.0073 0.03936,0 0.119163,0.09713 0.0677,-0.107063 0.07872,-0.118082 0.03345,-0.03345 0.08463,-0.04527 0.118082,-0.07872 0.04149,-0.04149 0.03723,-0.115952 0.07872,-0.157442 0.0594,-0.0594 0.124765,-0.114219 0.196802,-0.157441 0.03558,-0.02135 0.08356,-0.01635 0.118082,-0.03936 0.01338,-0.0089 0.0265,-0.06586 0.03936,-0.07872 0.01042,-0.01042 0.101874,0 0.118081,0"
     id="path8" />
</svg>
