<?xml version="1.0" encoding="UTF-8" standalone="no"?>
<!-- Uploaded to: SVG Repo, www.svgrepo.com, Generator: SVG Repo Mixer Tools -->

<svg
   fill="#000000"
   width="800px"
   height="800px"
   viewBox="0 0 32 32"
   version="1.1"
   id="svg1"
   sodipodi:docname="vk.svg"
   inkscape:version="1.3.1 (91b66b0783, 2023-11-16)"
   xmlns:inkscape="http://www.inkscape.org/namespaces/inkscape"
   xmlns:sodipodi="http://sodipodi.sourceforge.net/DTD/sodipodi-0.dtd"
   xmlns="http://www.w3.org/2000/svg"
   xmlns:svg="http://www.w3.org/2000/svg">
  <defs
     id="defs1" />
  <sodipodi:namedview
     id="namedview1"
     pagecolor="#ffffff"
     bordercolor="#000000"
     borderopacity="0.25"
     inkscape:showpageshadow="2"
     inkscape:pageopacity="0.0"
     inkscape:pagecheckerboard="0"
     inkscape:deskcolor="#d1d1d1"
     inkscape:zoom="1.01625"
     inkscape:cx="345.87946"
     inkscape:cy="384.25584"
     inkscape:window-width="1920"
     inkscape:window-height="1009"
     inkscape:window-x="-8"
     inkscape:window-y="-8"
     inkscape:window-maximized="1"
     inkscape:current-layer="svg1" />
  <circle
     style="fill:none;fill-opacity:1;stroke:#f50005;stroke-width:0.22919;stroke-linecap:round;stroke-opacity:1"
     id="path2"
     cx="16.629766"
     cy="15.527676"
     r="10.115621" />
  <path
     style="fill:none;fill-opacity:1;stroke:#f50005;stroke-width:0.22919;stroke-linecap:round;stroke-opacity:1"
     d="m 11.650677,12.437884 c 0.226277,0.540927 0.230686,1.136661 0.393604,1.692498 0.129582,0.442102 0.301224,0.871142 0.472324,1.298892 0.196425,0.491062 0.426348,0.968129 0.629767,1.456335 1.069241,2.566179 -0.227817,-0.499967 0.590406,1.613776 0.103875,0.268344 0.235173,0.525253 0.354243,0.787208 0.02428,0.05342 0.05693,0.102963 0.07872,0.157441 0.0097,0.02436 -0.01173,0.102191 0,0.07872 0.336755,-0.673511 0.447639,-1.435125 0.590406,-2.164821 0.148719,-0.760121 0.245113,-1.531496 0.432964,-2.282903 0.06443,-0.257731 0.18746,-0.497206 0.275523,-0.747848 0.220572,-0.627782 0.434277,-1.253959 0.629766,-1.889299 0.09238,-0.300217 0.314884,-0.70272 0.314884,-1.02337"
     id="path3" />
  <path
     style="fill:none;fill-opacity:1;stroke:#f50005;stroke-width:0.22919;stroke-linecap:round;stroke-opacity:1"
     d="m 18.538746,9.4071341 c 0.158103,3.2006609 -0.747848,6.3340749 -0.747848,9.5252149"
     id="path4" />
  <path
     style="fill:none;fill-opacity:1;stroke:#f50005;stroke-width:0.22919;stroke-linecap:round;stroke-opacity:1"
     d="m 24.00984,11.217712 c -0.839525,0.279842 -1.577625,0.84627 -2.322263,1.298893 -0.628741,0.382175 -1.254309,0.76975 -1.889299,1.141451 -0.217799,0.127493 -0.461162,0.211268 -0.669126,0.354244 -0.28182,0.19375 -0.541161,0.462439 -0.787208,0.708487 0.532555,0.246313 1.141252,0.22656 1.692497,0.393604 0.230844,0.06995 0.443823,0.189377 0.669126,0.275522 0.220928,0.08447 0.449518,0.148319 0.669127,0.236163 0.267166,0.106866 0.547788,0.19463 0.787208,0.354243 0.09792,0.06528 0.29442,0.66074 0.314883,0.708487 0.268876,0.627378 0.318688,0.662764 0.511685,1.338254 0.319034,1.116618 0.155902,0.64882 0.354244,1.574416 0.045,0.210004 0.157441,0.511996 0.157441,0.747847"
     id="path5" />
</svg>
